<svg xmlns="http://www.w3.org/2000/svg" width="1280" height="720" viewBox="0 0 1280 720" role="img" aria-labelledby="title desc"><title id="title">Administrative Workflow System guide image</title><desc id="desc">Demo guide image with fictitious administrative dashboard data.</desc><rect width="1280" height="720" fill="#f8fafc"/><rect x="58" y="44" width="1164" height="632" rx="24" fill="#fff" stroke="#dbe4f0"/><text x="96" y="100" font-family="Inter,Arial" font-size="31" font-weight="700" fill="#0f172a">Administrative Workflow System</text><text x="96" y="130" font-family="Inter,Arial" font-size="15" fill="#64748b">Imagem demonstrativa - fluxo administrativo e indicadores ficticios</text><rect x="96" y="172" width="250" height="118" rx="16" fill="#eff6ff" stroke="#bfdbfe"/><text x="126" y="216" font-family="Inter,Arial" font-size="16" fill="#1d4ed8">Registros ativos</text><text x="126" y="258" font-family="Inter,Arial" font-size="38" font-weight="700" fill="#1e3a8a">248</text><rect x="378" y="172" width="250" height="118" rx="16" fill="#ecfdf5" stroke="#a7f3d0"/><text x="408" y="216" font-family="Inter,Arial" font-size="16" fill="#047857">Processos concluidos</text><text x="408" y="258" font-family="Inter,Arial" font-size="38" font-weight="700" fill="#064e3b">91%</text><rect x="660" y="172" width="250" height="118" rx="16" fill="#fff7ed" stroke="#fed7aa"/><text x="690" y="216" font-family="Inter,Arial" font-size="16" fill="#c2410c">Pendencias</text><text x="690" y="258" font-family="Inter,Arial" font-size="38" font-weight="700" fill="#7c2d12">12</text><rect x="96" y="340" width="530" height="230" rx="18" fill="#fff" stroke="#dbe4f0"/><text x="130" y="388" font-family="Inter,Arial" font-size="20" font-weight="700" fill="#0f172a">Fila operacional</text><rect x="130" y="424" width="430" height="32" rx="8" fill="#e2e8f0"/><rect x="130" y="474" width="360" height="32" rx="8" fill="#bfdbfe"/><rect x="130" y="524" width="292" height="32" rx="8" fill="#a7f3d0"/><rect x="670" y="340" width="420" height="230" rx="18" fill="#fff" stroke="#dbe4f0"/><text x="704" y="388" font-family="Inter,Arial" font-size="20" font-weight="700" fill="#0f172a">Auditoria</text><polyline points="710,520 780,476 850,494 920,420 1020,392" fill="none" stroke="#2563eb" stroke-width="6" stroke-linecap="round"/></svg>